<?xml version='1.0' encoding='UTF-8'?>
<svg xmlns='http://www.w3.org/2000/svg' xmlns:xlink='http://www.w3.org/1999/xlink' width='0' height='0'>
<defs>
<symbol viewBox="0 0 24 24" fill="none" stroke="currentColor" stroke-width="2" stroke-linecap="round" stroke-linejoin="round" id="alert-circle">
  <circle cx="12" cy="12" r="10" ></circle>
  <line x1="12" x2="12" y1="8" y2="12" ></line>
  <line x1="12" x2="12.01" y1="16" y2="16" ></line>
</symbol>
<symbol viewBox="0 0 24 24" fill="none" stroke="currentColor" stroke-width="2" stroke-linecap="round" stroke-linejoin="round" id="check-circle-2">
  <path d="M12 22c5.523 0 10-4.477 10-10S17.523 2 12 2 2 6.477 2 12s4.477 10 10 10z" ></path>
  <path d="m9 12 2 2 4-4" ></path>
</symbol>
<symbol viewBox="0 0 24 24" fill="none" stroke="currentColor" stroke-width="2" stroke-linecap="round" stroke-linejoin="round" id="check">
  <polyline points="20 6 9 17 4 12" ></polyline>
</symbol>
<symbol viewBox="0 0 24 24" fill="none" stroke="currentColor" stroke-width="2" stroke-linecap="round" stroke-linejoin="round" id="chevron-down">
  <path d="m6 9 6 6 6-6" ></path>
</symbol>
<symbol viewBox="0 0 24 24" fill="none" stroke="currentColor" stroke-width="2" stroke-linecap="round" stroke-linejoin="round" id="help-circle">
  <circle cx="12" cy="12" r="10" ></circle>
  <path d="M9.09 9a3 3 0 0 1 5.83 1c0 2-3 3-3 3" ></path>
  <path d="M12 17h.01" ></path>
</symbol>
<symbol viewBox="0 0 24 24" fill="none" stroke="currentColor" stroke-width="2" stroke-linecap="round" stroke-linejoin="round" id="moon">
  <path d="M12 3a6 6 0 0 0 9 9 9 9 0 1 1-9-9Z" ></path>
</symbol>
<symbol viewBox="0 0 24 24" fill="none" stroke="currentColor" stroke-width="2" stroke-linecap="round" stroke-linejoin="round" id="sun">
  <circle cx="12" cy="12" r="4" ></circle>
  <path d="M12 2v2" ></path>
  <path d="M12 20v2" ></path>
  <path d="m4.93 4.93 1.41 1.41" ></path>
  <path d="m17.66 17.66 1.41 1.41" ></path>
  <path d="M2 12h2" ></path>
  <path d="M20 12h2" ></path>
  <path d="m6.34 17.66-1.41 1.41" ></path>
  <path d="m19.07 4.93-1.41 1.41" ></path>
</symbol>
<symbol viewBox="0 0 24 24" fill="none" stroke="currentColor" stroke-width="2" stroke-linecap="round" stroke-linejoin="round" id="x">
  <path d="M18 6 6 18" ></path>
  <path d="m6 6 12 12" ></path>
</symbol>
</defs>
</svg>